Coordinates
version=1
nRows=26
nColumns=22
inDegrees=yes

Units are S.I. units (second, meters, Newtons, ...)
If the header above contains a line with 'inDegrees', this indicates whether rotational values are in degrees (yes) or radians (no).

endheader
time	pelvis_tilt	pelvis_list	pelvis_rotation	pelvis_tx	pelvis_ty	pelvis_tz	hip_flexion_r	hip_adduction_r	hip_rotation_r	knee_angle_r	ankle_angle_r	subtalar_angle_r	hip_flexion_l	hip_adduction_l	hip_rotation_l	knee_angle_l	ankle_angle_l	subtalar_angle_l	lumbar_extension	lumbar_bending	lumbar_rotation
      1.40000000	      4.80608805	     -2.65227071	      5.23220224	     -1.39988365	      0.95541324	      0.02298594	     -6.83438485	      5.01709820	    -11.06188239	     -5.96855460	      8.52872728	      1.18604027	     -3.27781629	     -3.82084365	    -10.86406715	    -14.28182557	     20.10085200	     -5.50555492	    -11.13288202	      3.82720266	     -9.29364889
      1.41000000	      4.81474176	     -2.65981440	      5.22667632	     -1.39986149	      0.95539067	      0.02296156	     -6.82579220	      5.02094167	    -11.04841055	     -6.00385634	      8.53434804	      1.17358200	     -3.26190053	     -3.83046163	    -10.84574153	    -14.33325240	     20.11362502	     -5.49990953	    -11.15504869	      3.83850759	     -9.28551670
      1.42000000	      4.81677719	     -2.70021327	      5.22930304	     -1.39981968	      0.95532248	      0.02293842	     -6.79999903	      5.05967990	    -11.07439510	     -6.05667145	      8.59056734	      1.12690061	     -3.21162401	     -3.88721050	    -10.87917096	    -14.43477642	     20.19599617	     -5.48918126	    -11.16155234	      3.88967496	     -9.27832963
      1.43000000	      4.81839513	     -2.72332841	      5.22643362	     -1.39978901	      0.95526255	      0.02291229	     -6.76524031	      5.07677140	    -11.08743844	     -6.12814488	      8.62763602	      1.08715398	     -3.17036115	     -3.91817869	    -10.87356582	    -14.52013336	     20.25133415	     -5.48652551	    -11.17566248	      3.92432304	     -9.26737623
      1.44000000	      4.83214666	     -2.74484439	      5.22449835	     -1.39973279	      0.95521274	      0.02288797	     -6.73872817	      5.09290266	    -11.10684145	     -6.21446801	      8.67263717	      1.05900666	     -3.14773609	     -3.94765974	    -10.86286326	    -14.59886455	     20.30436794	     -5.49409002	    -11.20267977	      3.95820632	     -9.25430517
      1.45000000	      4.85203918	     -2.76245199	      5.21922581	     -1.39965836	      0.95516503	      0.02286691	     -6.71040435	      5.10390504	    -11.12953148	     -6.32059012	      8.72456064	      1.03317639	     -3.13550516	     -3.97182558	    -10.84783893	    -14.67544518	     20.36170086	     -5.50795888	    -11.23783597	      3.99231642	     -9.23985657
      1.46000000	      4.87970773	     -2.76787711	      5.21428522	     -1.39956262	      0.95513652	      0.02284623	     -6.69311439	      5.10454753	    -11.11069234	     -6.42591732	      8.74196905	      1.02352817	     -3.14121106	     -3.98013601	    -10.81276713	    -14.73868581	     20.38494124	     -5.51236383	    -11.28314418	      4.01493612	     -9.23755873
      1.47000000	      4.91945127	     -2.78735143	      5.20588109	     -1.39941850	      0.95509271	      0.02283685	     -6.65540995	      5.11356499	    -11.18289706	     -6.60071275	      8.85767683	      0.98666324	     -3.15818585	     -4.01065834	    -10.82109238	    -14.81449039	     20.48355919	     -5.54173528	    -11.33703934	      4.05516496	     -9.20320839
      1.48000000	      4.95921903	     -2.79007569	      5.20243101	     -1.39926530	      0.95505713	      0.02281640	     -6.61568666	      5.10681166	    -11.20993891	     -6.78259927	      8.94898031	      0.94397452	     -3.18111348	     -4.01940203	    -10.80894392	    -14.88053733	     20.54748977	     -5.57229835	    -11.39317836	      4.07990725	     -9.18421714
      1.49000000	      5.00744700	     -2.78870818	      5.18663182	     -1.39907718	      0.95503129	      0.02283470	     -6.57115719	      5.09468055	    -11.23084874	     -6.99434064	      9.04642141	      0.89224154	     -3.22265266	     -4.02450219	    -10.80005535	    -14.93909649	     20.60726871	     -5.60408452	    -11.45751189	      4.09481036	     -9.17143905
      1.50000000	      5.06065181	     -2.77907734	      5.17055355	     -1.39887228	      0.95501367	      0.02284327	     -6.51217444	      5.07101796	    -11.24741831	     -7.24755102	      9.16125564	      0.82490199	     -3.27721534	     -4.01986857	    -10.80013173	    -14.98534885	     20.66407720	     -5.63729401	    -11.52775678	      4.10456747	     -9.15893604
      1.51000000	      5.11328067	     -2.76267058	      5.14490231	     -1.39864860	      0.95500016	      0.02286882	     -6.42923198	      5.03719955	    -11.25927685	     -7.54683494	      9.28795190	      0.74526087	     -3.34040116	     -4.00658704	    -10.80475257	    -15.01923134	     20.71404444	     -5.66533494	    -11.59653987	      4.10587052	     -9.14557934
      1.52000000	      5.16059244	     -2.73695377	      5.10957881	     -1.39841335	      0.95498115	      0.02291593	     -6.30943528	      4.98850717	    -11.26633481	     -7.90804265	      9.43519586	      0.64957593	     -3.40620258	     -3.98243104	    -10.81465091	    -15.04158975	     20.75697095	     -5.68656300	    -11.66019101	      4.09521389	     -9.13927367
      1.53000000	      5.17748513	     -2.68865872	      5.06727790	     -1.39816400	      0.95491836	      0.02297057	     -6.12174829	      4.90660379	    -11.27478318	     -8.34313897	      9.66668468	      0.47330958	     -3.44467363	     -3.93162812	    -10.83985081	    -15.05719157	     20.77668962	     -5.71364488	    -11.68771707	      4.05918423	     -9.18008267
      1.54000000	      5.19153078	     -2.64230569	      5.01335740	     -1.39792671	      0.95484948	      0.02307368	     -5.89442278	      4.82374183	    -11.27814093	     -8.84479281	      9.86673696	      0.31015904	     -3.48114658	     -3.88436532	    -10.85608049	    -15.07157147	     20.80723257	     -5.71431721	    -11.72042932	      4.02405570	     -9.19670022
      1.55000000	      5.19286739	     -2.58573630	      4.95027832	     -1.39768130	      0.95475609	      0.02321790	     -5.62390122	      4.72620316	    -11.27578116	     -9.40475415	     10.08991932	      0.15198457	     -3.50755240	     -3.82693678	    -10.87426164	    -15.08302880	     20.83197319	     -5.69710049	    -11.74398908	      3.97643951	     -9.22825712
      1.56000000	      5.18028234	     -2.51591301	      4.88374505	     -1.39743228	      0.95463019	      0.02340240	     -5.31393724	      4.61319799	    -11.26725057	    -10.01328883	     10.33892475	     -0.01062862	     -3.51700073	     -3.75761384	    -10.89376948	    -15.09986089	     20.85212559	     -5.66528424	    -11.75890092	      3.91572385	     -9.28151558
      1.57000000	      5.16747493	     -2.43452995	      4.81530766	     -1.39716999	      0.95448889	      0.02361900	     -4.98797170	      4.48810583	    -11.25452458	    -10.65416850	     10.59211300	     -0.15812692	     -3.52787988	     -3.67810126	    -10.91500133	    -15.11659091	     20.87973722	     -5.62190705	    -11.78285758	      3.84515892	     -9.34859056
      1.58000000	      5.14098961	     -2.34142566	      4.75428866	     -1.39690696	      0.95430387	      0.02386731	     -4.63844130	      4.35345578	    -11.23396208	    -11.31303198	     10.87829390	     -0.32863084	     -3.50688446	     -3.58983774	    -10.91126833	    -15.16639025	     20.89632383	     -5.56546222	    -11.79982172	      3.76215880	     -9.43644751
      1.59000000	      5.11953164	     -2.23664483	      4.69832577	     -1.39661581	      0.95410077	      0.02412983	     -4.29387740	      4.20906665	    -11.21030928	    -11.97851832	     11.16061799	     -0.50456603	     -3.48613199	     -3.49221154	    -10.90170777	    -15.23025434	     20.92985672	     -5.49834979	    -11.82992187	      3.67217161	     -9.53399358
      1.60000000	      5.11144836	     -2.11776245	      4.64539885	     -1.39627016	      0.95389556	      0.02441427	     -3.97474438	      4.05523845	    -11.17848215	    -12.63180035	     11.46207107	     -0.65240762	     -3.48450464	     -3.38327152	    -10.90454956	    -15.29280239	     20.96977086	     -5.43028777	    -11.87839536	      3.57163286	     -9.65569280
      1.61000000	      5.10125526	     -1.99050234	      4.60662654	     -1.39589347	      0.95366089	      0.02470652	     -3.66663056	      3.89916616	    -11.13828591	    -13.26659579	     11.76565464	     -0.81823978	     -3.46883036	     -3.26976021	    -10.89720191	    -15.37899488	     21.02276532	     -5.35140210	    -11.93042737	      3.46692503	     -9.79300811
      1.62000000	      5.11202041	     -1.86085953	      4.56834374	     -1.39543852	      0.95343300	      0.02502976	     -3.40225395	      3.74874838	    -11.09428120	    -13.87167769	     12.06948226	     -0.94736874	     -3.48823287	     -3.15798763	    -10.91257937	    -15.45117664	     21.10595265	     -5.27491044	    -12.00419279	      3.36484164	     -9.94621451
      1.63000000	      5.08680795	     -1.72738023	      4.56624793	     -1.39501574	      0.95312967	      0.02535858	     -3.11804155	      3.60743066	    -11.02674390	    -14.44131599	     12.39511910	     -1.18200343	     -3.42367870	     -3.04918109	    -10.87248622	    -15.59613312	     21.15620580	     -5.16554195	    -12.05069818	      3.25760279	    -10.11129591
      1.64000000	      5.07163609	     -1.59810135	      4.57423921	     -1.39452616	      0.95282267	      0.02571847	     -2.87583669	      3.48256132	    -10.95168720	    -14.96090496	     12.68820382	     -1.44469215	     -3.37582815	     -2.95210265	    -10.85619630	    -15.73481285	     21.25270211	     -5.04104440	    -12.10763849	      3.16125455	    -10.29427521
      1.65000000	      5.08276909	     -1.48119934	      4.58219177	     -1.39395711	      0.95254373	      0.02612463	     -2.69224016	      3.38106875	    -10.87987675	    -15.43181219	     12.97260374	     -1.61679532	     -3.37497425	     -2.87361681	    -10.84852078	    -15.84804937	     21.39272018	     -4.93488511	    -12.19512585	      3.08402451	    -10.47196054
